<?xml version="1.0" encoding="UTF-8"?><svg id="a" xmlns="http://www.w3.org/2000/svg" width="512" height="163.01227" viewBox="0 0 512 163.01227"><path d="M60.75484,101.8541l30.01628-1.13269c-.86382,11.65052-5.2058,21.22527-13.02593,28.72178-7.82177,7.49815-17.34176,11.24599-28.55996,11.24599-11.86709,0-21.88559-4.12623-30.05632-12.37868-8.17237-8.25245-12.25773-18.36576-12.25773-30.33991,0-11.38002,4.12623-21.11657,12.37868-29.20722s18.14919-12.13596,29.69265-12.13596c10.08552,0,18.98522,3.18314,26.69912,9.54696,7.71226,6.36546,12.51271,14.48225,14.40134,24.35283l-30.66353,1.13269c-2.64376-3.45119-5.98707-5.17801-10.0324-5.17801-3.45282,0-6.28455,1.13269-8.49517,3.39807-2.21226,2.26538-3.31716,5.12489-3.31716,8.57608,0,3.50676,1.17355,6.44636,3.51902,8.8188,2.3471,2.37407,5.27199,3.55988,8.77875,3.55988,5.12326,0,8.76404-2.99354,10.92237-8.98061Z"/><path d="M131.83807,56.62741c11.43396,0,21.23834,4.11397,29.40907,12.33864,8.17237,8.22549,12.25773,18.08218,12.25773,29.57089,0,11.65052-4.14012,21.57586-12.41954,29.77356-8.28024,8.19933-18.27177,12.29778-29.97542,12.29778-11.70528,0-21.71071-4.11233-30.01628-12.33864-8.30721-8.22385-12.45959-18.1353-12.45959-29.7327,0-11.81234,4.15238-21.74993,12.45959-29.81442,8.30557-8.06204,18.55372-12.0951,30.74444-12.0951ZM131.02901,86.48188c-3.23626,0-5.98707,1.17273-8.25245,3.51984-2.26538,2.34547-3.39807,5.21806-3.39807,8.61612,0,3.34495,1.14495,6.20364,3.43893,8.57608,2.29153,2.37407,5.02846,3.55988,8.21159,3.55988,3.23626,0,5.99933-1.18581,8.29332-3.55988,2.29153-2.37244,3.43811-5.23113,3.43811-8.57608,0-3.39807-1.13269-6.27066-3.39807-8.61612-2.26538-2.3471-5.04398-3.51984-8.33336-3.51984Z"/><path d="M214.27109,56.62741c11.43396,0,21.23834,4.11397,29.40907,12.33864,8.17237,8.22549,12.25773,18.08218,12.25773,29.57089,0,11.65052-4.14012,21.57586-12.41954,29.77356-8.28024,8.19933-18.27177,12.29778-29.97542,12.29778-11.70528,0-21.71071-4.11233-30.01628-12.33864-8.30721-8.22385-12.45959-18.1353-12.45959-29.7327,0-11.81234,4.15238-21.74993,12.45959-29.81442,8.30557-8.06204,18.55372-12.0951,30.74444-12.0951ZM213.46202,86.48188c-3.23626,0-5.98707,1.17273-8.25245,3.51984-2.26538,2.34547-3.39807,5.21806-3.39807,8.61612,0,3.34495,1.14495,6.20364,3.43893,8.57608,2.29153,2.37407,5.02846,3.55988,8.21159,3.55988,3.23626,0,5.99933-1.18581,8.29332-3.55988,2.29153-2.37244,3.43811-5.23113,3.43811-8.57608,0-3.39807-1.13269-6.27066-3.39807-8.61612-2.26538-2.3471-5.04398-3.51984-8.33336-3.51984Z"/><path d="M301.91235,57.51738v32.36257c-2.10357-1.18581-4.01917-1.77994-5.74436-1.77994-5.50164,0-8.25245,4.20713-8.25245,12.6214v38.26873h-30.259v-44.094c0-11.65052,3.1815-20.94087,9.54696-27.87185,6.36382-6.93017,14.85899-10.39688,25.48552-10.39688,2.37244,0,5.44688.29747,9.22333.88997Z"/><path d="M351.98688,28.55289h30.26063v67.23323c0,12.35253-3.23626,22.41108-9.70877,30.17809-3.72333,4.47764-8.45349,8.03752-14.2003,10.67965-5.74354,2.64213-11.63745,3.96441-17.67846,3.96441-12.02645,0-22.16672-4.04532-30.41918-12.13596-8.25245-8.09064-12.37868-18.01434-12.37868-29.77356,0-11.38002,4.09844-21.22363,12.29859-29.53084,8.19688-8.30557,17.90565-12.45959,29.12631-12.45959,1.77831,0,4.47519.16181,8.09064.48544v33.33344c-2.48113-1.94175-4.96553-2.91263-7.44339-2.91263-3.12838,0-5.81219,1.14658-8.04978,3.43811-2.23923,2.29398-3.35884,5.05706-3.35884,8.29332,0,3.1292,1.15884,5.813,3.47979,8.04978,2.31605,2.23923,5.09465,3.35802,8.33091,3.35802,7.76702,0,11.65052-5.36598,11.65052-16.10038V28.55289Z"/><path d="M418.2713,58.32645v80.6637h-30.25737V58.32645h30.25737ZM403.22434,22.32309c4.09762,0,7.64443,1.44406,10.63879,4.32808,2.99272,2.88648,4.4899,6.29844,4.4899,10.23507,0,4.20713-1.41545,7.65996-4.248,10.35602-2.83091,2.6977-6.45944,4.04532-10.88069,4.04532-4.42452,0-8.05141-1.34762-10.88232-4.04532-2.83254-2.69606-4.248-6.14889-4.248-10.35602,0-3.93663,1.49718-7.34859,4.4899-10.23507,2.99435-2.88403,6.53953-4.32808,10.64042-4.32808Z"/><path d="M504.80521,103.55313h-45.87476c-.70119-2.3185-1.05097-4.44985-1.05097-6.39161,0-2.69606.4838-5.33982,1.45468-7.92883h15.37385c-1.08039-5.98707-4.45067-8.98061-10.11412-8.98061-3.77563,0-6.85008,1.60587-9.22333,4.81352-2.37489,3.21011-3.55988,7.32244-3.55988,12.33864,0,5.23277,1.14577,9.46605,3.43893,12.70231,2.29153,3.23626,5.29896,4.85438,9.02066,4.85438,3.02051,0,5.93314-1.50944,8.73789-4.53076l17.23388,20.71204c-8.03834,6.3107-16.9642,9.46605-26.78084,9.46605-11.97415,0-22.03433-4.01753-30.17728-12.05506-8.14621-8.03589-12.21769-17.98738-12.21769-29.85447,0-11.81234,4.11233-21.78998,12.33864-29.93537,8.22467-8.14376,18.32571-12.21687,30.29986-12.21687,11.70283,0,21.53255,3.97831,29.48916,11.9341,7.95498,7.95661,11.93492,17.75855,11.93492,29.40907,0,1.18744-.10951,3.07444-.32363,5.66345Z"/></svg>