<?xml version="1.0" encoding="UTF-8"?>
<svg xmlns="http://www.w3.org/2000/svg" viewBox="0 0 512 512">
  <rect width="512" height="512" rx="256" ry="256"/>
  <path fill="#fff" d="M313.2,271.2l144.7-5.5c-4.2,56.1-25.1,102.3-62.8,138.4-37.7,36.1-83.6,54.2-137.6,54.2s-105.5-19.9-144.9-59.7c-39.4-39.8-59.1-88.5-59.1-146.2s19.9-101.8,59.7-140.8c39.8-39,87.5-58.5,143.1-58.5s91.5,15.3,128.7,46c37.2,30.7,60.3,69.8,69.4,117.4l-147.8,5.5c-12.7-16.6-28.9-25-48.4-25s-30.3,5.5-40.9,16.4c-10.7,10.9-16,24.7-16,41.3s5.7,31.1,17,42.5c11.3,11.4,25.4,17.2,42.3,17.2,24.7,0,42.2-14.4,52.6-43.3Z"/>
</svg>
